<?xml version="1.0" encoding="UTF-8"?>
<!DOCTYPE svg PUBLIC "-//W3C//DTD SVG 1.0//EN" "http://www.w3.org/TR/2001/REC-SVG-20010904/DTD/svg10.dtd">
<!-- Creator: CorelDRAW 2021 (64-Bit) -->
<svg xmlns="http://www.w3.org/2000/svg" xml:space="preserve" width="270px" height="270px" version="1.0" style="shape-rendering:geometricPrecision; text-rendering:geometricPrecision; image-rendering:optimizeQuality; fill-rule:evenodd; clip-rule:evenodd"
viewBox="0 0 270 270.002"
 xmlns:xlink="http://www.w3.org/1999/xlink"
 xmlns:xodm="http://www.corel.com/coreldraw/odm/2003">
 <defs>
  <style type="text/css">
   <![CDATA[
    .fil1 {fill:none}
    .fil4 {fill:#010105}
    .fil5 {fill:#033A5B}
    .fil6 {fill:#073957}
    .fil0 {fill:#2ED316}
    .fil2 {fill:#5ACB2E}
    .fil3 {fill:#65E633}
   ]]>
  </style>
 </defs>
 <g id="Capa_x0020_1">
  <metadata id="CorelCorpID_0Corel-Layer"/>
  <path class="fil0" d="M124.618 94.53c41.72,-2.603 91.314,12.186 101.984,43.458 7.495,21.97 -12.089,38.879 -23.674,45.809 -18.927,11.32 -33.102,12.921 -56.856,16.475 -18.296,2.738 -46.962,-2.517 -63.281,-8.798 -17.585,-6.768 -33.46,-17.674 -39.341,-33.84 -7.394,-20.331 8.393,-37.033 24.012,-46.66 15.174,-9.353 36.553,-15.16 57.156,-16.444zm-113.725 49.428c4.585,40.444 84.367,60.116 130.864,57.666 29.617,-1.561 54.192,-4.07 79.288,-14.625 63.35,-26.644 57.634,-71.97 -4.849,-94.723 -45.668,-16.631 -116.08,-17.6 -161.081,2.021 -18.561,8.093 -47.126,24.043 -44.222,49.661z"/>
  <path class="fil1" d="M164.3 155.341c-1.737,-15.947 2.242,-32.54 15.04,-36.381 33.763,-10.133 36.832,52.504 12.047,59.045 -16.698,4.408 -25.557,-8.614 -27.087,-22.664zm-7.366 -8.537c3.099,4.645 5.669,3.814 6.502,11.542 2.546,23.626 -20.864,19.763 -36.646,19.653l-56.255 0.054c-3.741,0.024 -5.405,0.707 -5.515,-3.507 -0.136,-5.197 1.342,-3.228 5.313,-4.498 1.17,-5.431 0.84,-36.697 0.197,-43.21 -3.185,-0.807 -4.742,0.617 -5.445,-2.925 -1.488,-7.513 7.475,-5.029 21.867,-4.986 11.84,0.036 23.772,-0.366 35.569,0.208 13.143,0.64 38.444,-5.287 39.281,14.121 0.395,9.141 -3.254,10.698 -4.868,13.548zm-32.316 -52.274c-20.603,1.284 -41.982,7.091 -57.156,16.444 -15.619,9.627 -31.406,26.329 -24.012,46.66 5.881,16.166 21.756,27.072 39.341,33.84 16.319,6.281 44.985,11.536 63.281,8.798 23.754,-3.554 37.929,-5.155 56.856,-16.475 11.585,-6.93 31.169,-23.839 23.674,-45.809 -10.67,-31.272 -60.264,-46.061 -101.984,-43.458z"/>
  <path class="fil2" d="M21.598 191.538c-3.265,-2.363 -8.333,-7.018 -10.668,-8.277 1.121,9.238 13.355,24.075 17.869,28.805 49.921,52.308 152.002,52.128 201.767,0.816 4.049,-4.175 17.218,-19.725 17.679,-28.137l-10.993 8.497c-30.39,19.909 -71.999,27.561 -108.328,27.665 -34.378,0.098 -79.465,-9.203 -107.326,-29.369z"/>
  <path class="fil3" d="M6.536 85.03c4.698,-1.071 11.24,-4.476 17.566,-6.111 21.688,-5.607 18.743,1.664 27.083,-9.141 17.954,-23.258 58.705,-41.016 93.894,-37.121 27.592,3.054 46.475,12.154 65.981,29.867 19.029,17.281 19.626,29.683 26.443,34.055 11.103,7.119 14.033,13.557 21.009,15.478 -1.74,-11.09 -11.071,-27.503 -16.401,-35.736 -5.486,-8.475 -16.769,-22.083 -24.444,-28.225 -10.935,-8.75 -17.818,-14.469 -31.696,-20.936 -55.008,-25.635 -115.695,-13.184 -156.89,27.624 -6.111,6.053 -18.418,20.547 -22.545,30.246z"/>
  <path class="fil4" d="M83.491 133.998c-0.023,-6.291 -1.267,-8.389 6.31,-7.69 3.257,0.299 2.953,0.671 3.071,4.041l-0.399 39.791c-1.692,0.434 -3.037,0.692 -4.84,0.594l-4.048 -1.14 -0.094 -35.596zm59.444 17.474c6.366,-1.374 7.345,2.978 7.393,8.84 0.055,6.764 -0.383,10.142 -7.816,9.279 -0.226,-3.079 -0.11,-6.18 -0.12,-9.271 -0.008,-2.331 -0.388,-6.737 0.543,-8.848zm7.096 -0.4c2.402,-2.111 5.173,-4.722 7.756,-1.15l4.117 7.143c1.401,6.336 -0.614,15.368 -5.733,15.937 1.42,-19.911 -4.607,-12.773 -6.14,-21.93zm-26.799 -14.962c1.196,-2.965 0.495,-7.082 0.398,-10.33l5.862 1.196c0.892,6.618 0.318,17.08 0.305,24.096 -0.021,11.655 1.965,19.635 -3.44,19.56 -2.547,-6.414 3.576,-11.646 -7.4,-10.105l-2.141 8.989c-3.487,0.384 -7.708,0.779 -11.033,-0.21 -0.265,-4.179 -0.998,-14.518 0.384,-17.467 3.313,-3.561 13.958,4.292 13.578,-5.042 -0.174,-4.246 -1.395,-3.637 -5.716,-3.576 -2.759,0.038 -5.581,0.391 -8.292,-0.392l0.115 -15.519c12.287,-1.828 9.464,2.184 10.71,9.067 2.317,0.348 4.312,0.633 6.67,-0.267zm19.476 -8.886c5.522,-0.26 5.922,2.974 5.823,8.211 -0.095,5.04 -0.674,7.853 -6.089,7.467l0.266 -15.678zm-20.805 -0.209l0.186 5.143c-2.176,-0.232 -3.236,-0.556 -4.755,-1.722l-0.693 -3.858 5.262 0.437zm-35.404 48.245c-0.903,0.516 -4.218,2.007 -9.012,0.272 -1.905,-5.105 0.195,-31.255 -0.465,-40.182 -0.619,-8.367 -5.097,-0.303 -4.887,-8.551l9.898 0.119 0.483 43.361c2.752,3.539 3.718,-0.211 3.983,4.981zm54.793 -4.461c3.658,1.558 4.626,-0.656 3.798,5.208l-8.907 -0.168c-1.423,-9.269 0.467,-30.082 -0.313,-40.447 -0.596,-7.911 -4.508,-1.149 -4.834,-8.715l9.991 0.214 0.108 17.17 4.098 1.317 0.03 3.778 -4.246 1.204 0.275 20.439zm-36.979 -0.048c3.629,1.645 4.813,-0.799 3.86,5.271l-8.814 -0.307c-1.477,-9.064 0.453,-30.031 -0.332,-40.32 -0.62,-8.123 -4.638,-1.041 -4.94,-8.721l10.043 0.214 0.093 16.971c3.822,1.787 4.397,-0.426 4.302,5.54l-4.376 0.962 0.164 20.39zm50.97 -25.378c-1.111,-3.254 0.067,-7.804 -1.831,-10.944 -1.98,-3.275 -3.294,-1.526 -5.115,-7.244 3.651,-0.539 7.998,0.334 10.51,1.735 3.576,5.12 0.785,14.669 -3.564,16.453zm-90.263 29.173c0.11,4.214 1.774,3.531 5.515,3.507l56.255 -0.054c15.782,0.11 39.192,3.973 36.646,-19.653 -0.833,-7.728 -3.403,-6.897 -6.502,-11.542 1.614,-2.85 5.263,-4.407 4.868,-13.548 -0.837,-19.408 -26.138,-13.481 -39.281,-14.121 -11.797,-0.574 -23.729,-0.172 -35.569,-0.208 -14.392,-0.043 -23.355,-2.527 -21.867,4.986 0.703,3.542 2.26,2.118 5.445,2.925 0.643,6.513 0.973,37.779 -0.197,43.21 -3.971,1.27 -5.449,-0.699 -5.313,4.498z"/>
  <path class="fil4" d="M194.021 153.918c-0.225,4.171 -0.825,9.45 -2.582,12.725 -3.79,7.068 -16.246,7.23 -13.977,-24.097 0.282,-3.903 1.123,-9.128 2.561,-12.231 2.232,-4.819 15.923,-12.081 13.998,23.603zm-10.119 21.851c-6.66,-0.088 -9.564,-0.428 -11.361,-5.746 -3.722,-11.02 -3.39,-32.834 4.856,-38.265 -0.442,8.896 -2.217,14.386 -1.242,24.633 1.482,15.558 6.589,11.481 7.747,19.378zm15.458 -5.206c0.02,-9.56 2.036,-15.831 0.526,-26.445 -1.579,-11.102 -6.011,-10.902 -9.358,-18.088 12.084,0.043 14.434,6.313 15.341,17.936 1.457,18.672 -5.913,26.549 -6.075,26.226 -0.062,-0.125 -0.277,0.263 -0.434,0.371zm-35.06 -15.222c1.53,14.05 10.389,27.072 27.087,22.664 24.785,-6.541 21.716,-69.178 -12.047,-59.045 -12.798,3.841 -16.777,20.434 -15.04,36.381z"/>
  <path class="fil1" d="M123.232 136.11c-2.358,0.9 -4.353,0.615 -6.67,0.267 -1.246,-6.883 1.577,-10.895 -10.71,-9.067l-0.115 15.519c2.711,0.783 5.533,0.43 8.292,0.392 4.321,-0.061 5.542,-0.67 5.716,3.576 0.38,9.334 -10.265,1.481 -13.578,5.042 -1.382,2.949 -0.649,13.288 -0.384,17.467 3.325,0.989 7.546,0.594 11.033,0.21l2.141 -8.989c10.976,-1.541 4.853,3.691 7.4,10.105 5.405,0.075 3.419,-7.905 3.44,-19.56 0.013,-7.016 0.587,-17.478 -0.305,-24.096l-5.862 -1.196c0.097,3.248 0.798,7.365 -0.398,10.33z"/>
  <path class="fil1" d="M194.021 153.918c1.925,-35.684 -11.766,-28.422 -13.998,-23.603 -1.438,3.103 -2.279,8.328 -2.561,12.231 -2.269,31.327 10.187,31.165 13.977,24.097 1.757,-3.275 2.357,-8.554 2.582,-12.725z"/>
  <path class="fil1" d="M83.491 133.998l0.094 35.596 4.048 1.14c1.803,0.098 3.148,-0.16 4.84,-0.594l0.399 -39.791c-0.118,-3.37 0.186,-3.742 -3.071,-4.041 -7.577,-0.699 -6.333,1.399 -6.31,7.69z"/>
  <path class="fil5" d="M136.183 175.839l8.907 0.168c0.828,-5.864 -0.14,-3.65 -3.798,-5.208l-0.275 -20.439 4.246 -1.204 -0.03 -3.778 -4.098 -1.317 -0.108 -17.17 -9.991 -0.214c0.326,7.566 4.238,0.804 4.834,8.715 0.78,10.365 -1.11,31.178 0.313,40.447z"/>
  <path class="fil5" d="M99.359 175.715l8.814 0.307c0.953,-6.07 -0.231,-3.626 -3.86,-5.271l-0.164 -20.39 4.376 -0.962c0.095,-5.966 -0.48,-3.753 -4.302,-5.54l-0.093 -16.971 -10.043 -0.214c0.302,7.68 4.32,0.598 4.94,8.721 0.785,10.289 -1.145,31.256 0.332,40.32z"/>
  <path class="fil5" d="M77.487 175.532c4.794,1.735 8.109,0.244 9.012,-0.272 -0.265,-5.192 -1.231,-1.442 -3.983,-4.981l-0.483 -43.361 -9.898 -0.119c-0.21,8.248 4.268,0.184 4.887,8.551 0.66,8.927 -1.44,35.077 0.465,40.182z"/>
  <path class="fil5" d="M199.36 170.563c0.157,-0.108 0.372,-0.496 0.434,-0.371 0.162,0.323 7.532,-7.554 6.075,-26.226 -0.907,-11.623 -3.257,-17.893 -15.341,-17.936 3.347,7.186 7.779,6.986 9.358,18.088 1.51,10.614 -0.506,16.885 -0.526,26.445z"/>
  <path class="fil5" d="M183.902 175.769c-1.158,-7.897 -6.265,-3.82 -7.747,-19.378 -0.975,-10.247 0.8,-15.737 1.242,-24.633 -8.246,5.431 -8.578,27.245 -4.856,38.265 1.797,5.318 4.701,5.658 11.361,5.746z"/>
  <path class="fil5" d="M150.031 151.072c1.533,9.157 7.56,2.019 6.14,21.93 5.119,-0.569 7.134,-9.601 5.733,-15.937l-4.117 -7.143c-2.583,-3.572 -5.354,-0.961 -7.756,1.15z"/>
  <path class="fil1" d="M142.935 151.472c-0.931,2.111 -0.551,6.517 -0.543,8.848 0.01,3.091 -0.106,6.192 0.12,9.271 7.433,0.863 7.871,-2.515 7.816,-9.279 -0.048,-5.862 -1.027,-10.214 -7.393,-8.84z"/>
  <path class="fil5" d="M155.283 145.373c4.349,-1.784 7.14,-11.333 3.564,-16.453 -2.512,-1.401 -6.859,-2.274 -10.51,-1.735 1.821,5.718 3.135,3.969 5.115,7.244 1.898,3.14 0.72,7.69 1.831,10.944z"/>
  <path class="fil1" d="M142.442 142.902c5.415,0.386 5.994,-2.427 6.089,-7.467 0.099,-5.237 -0.301,-8.471 -5.823,-8.211l-0.266 15.678z"/>
  <path class="fil6" d="M117.334 130.436c1.519,1.166 2.579,1.49 4.755,1.722l-0.186 -5.143 -5.262 -0.437 0.693 3.858z"/>
 </g>
</svg>
